<mxfile host="app.diagrams.net" modified="2023-04-13T12:08:29.747Z" agent="5.0 (Macintosh; Intel Mac OS X 10_15_7) AppleWebKit/537.36 (KHTML, like Gecko) Chrome/112.0.0.0 Safari/537.36" etag="M_tQGT30FJOuXhsh4AGY" version="20.2.7" type="github">
  <diagram id="bN9SyEvOiPo-89E6D110" name="Page-1">
    <mxGraphModel dx="757" dy="426" grid="1" gridSize="10" guides="1" tooltips="1" connect="1" arrows="1" fold="1" page="1" pageScale="1" pageWidth="827" pageHeight="1169" math="0" shadow="0">
      <root>
        <mxCell id="0" />
        <mxCell id="1" parent="0" />
        <object placeholders="1" c4Name="Portal" c4Type="SystemScopeBoundary" c4Application="Portal" label="&lt;font style=&quot;font-size: 16px&quot;&gt;&lt;b&gt;&lt;div style=&quot;text-align: left&quot;&gt;%c4Name%&lt;/div&gt;&lt;/b&gt;&lt;/font&gt;&lt;div style=&quot;text-align: left&quot;&gt;[%c4Application%]&lt;/div&gt;" id="h-sel9MC855YvEujkFiy-1">
          <mxCell style="rounded=1;fontSize=11;whiteSpace=wrap;html=1;dashed=1;arcSize=20;fillColor=none;strokeColor=#666666;fontColor=#333333;labelBackgroundColor=none;align=left;verticalAlign=bottom;labelBorderColor=none;spacingTop=0;spacing=10;dashPattern=8 4;metaEdit=1;rotatable=0;perimeter=rectanglePerimeter;noLabel=0;labelPadding=0;allowArrows=0;connectable=0;expand=0;recursiveResize=0;editable=1;pointerEvents=0;absoluteArcSize=1;points=[[0.25,0,0],[0.5,0,0],[0.75,0,0],[1,0.25,0],[1,0.5,0],[1,0.75,0],[0.75,1,0],[0.5,1,0],[0.25,1,0],[0,0.75,0],[0,0.5,0],[0,0.25,0]];" parent="1" vertex="1">
            <mxGeometry x="120" y="120" width="330" height="290" as="geometry" />
          </mxCell>
        </object>
        <mxCell id="h-sel9MC855YvEujkFiy-11" style="edgeStyle=orthogonalEdgeStyle;rounded=0;orthogonalLoop=1;jettySize=auto;html=1;" parent="1" source="h-sel9MC855YvEujkFiy-6" edge="1">
          <mxGeometry relative="1" as="geometry">
            <mxPoint x="209.9999999999999" y="190" as="targetPoint" />
          </mxGeometry>
        </mxCell>
        <mxCell id="h-sel9MC855YvEujkFiy-6" value="Login" style="rounded=1;whiteSpace=wrap;html=1;" parent="1" vertex="1">
          <mxGeometry x="140" y="140" width="80" height="20" as="geometry" />
        </mxCell>
        <mxCell id="h-sel9MC855YvEujkFiy-12" style="edgeStyle=orthogonalEdgeStyle;rounded=0;orthogonalLoop=1;jettySize=auto;html=1;entryX=0.447;entryY=-0.115;entryDx=0;entryDy=0;entryPerimeter=0;" parent="1" source="h-sel9MC855YvEujkFiy-7" target="h-sel9MC855YvEujkFiy-8" edge="1">
          <mxGeometry relative="1" as="geometry" />
        </mxCell>
        <mxCell id="h-sel9MC855YvEujkFiy-7" value="Create app" style="rounded=1;whiteSpace=wrap;html=1;" parent="1" vertex="1">
          <mxGeometry x="170" y="190" width="80" height="20" as="geometry" />
        </mxCell>
        <mxCell id="h-sel9MC855YvEujkFiy-13" style="edgeStyle=orthogonalEdgeStyle;rounded=0;orthogonalLoop=1;jettySize=auto;html=1;entryX=0.418;entryY=-0.07;entryDx=0;entryDy=0;entryPerimeter=0;" parent="1" source="h-sel9MC855YvEujkFiy-8" target="h-sel9MC855YvEujkFiy-9" edge="1">
          <mxGeometry relative="1" as="geometry" />
        </mxCell>
        <mxCell id="h-sel9MC855YvEujkFiy-8" value="Create pages" style="rounded=1;whiteSpace=wrap;html=1;" parent="1" vertex="1">
          <mxGeometry x="220" y="240" width="80" height="20" as="geometry" />
        </mxCell>
        <mxCell id="h-sel9MC855YvEujkFiy-14" style="edgeStyle=orthogonalEdgeStyle;rounded=0;orthogonalLoop=1;jettySize=auto;html=1;entryX=0.5;entryY=0;entryDx=0;entryDy=0;" parent="1" source="h-sel9MC855YvEujkFiy-9" target="h-sel9MC855YvEujkFiy-10" edge="1">
          <mxGeometry relative="1" as="geometry" />
        </mxCell>
        <mxCell id="h-sel9MC855YvEujkFiy-9" value="Create clickable" style="rounded=1;whiteSpace=wrap;html=1;" parent="1" vertex="1">
          <mxGeometry x="280" y="290" width="90" height="20" as="geometry" />
        </mxCell>
        <mxCell id="lwPp-hryZ5gbsdKSNsE4-2" style="edgeStyle=orthogonalEdgeStyle;rounded=0;orthogonalLoop=1;jettySize=auto;html=1;" edge="1" parent="1" source="h-sel9MC855YvEujkFiy-10" target="lwPp-hryZ5gbsdKSNsE4-1">
          <mxGeometry relative="1" as="geometry" />
        </mxCell>
        <mxCell id="h-sel9MC855YvEujkFiy-10" value="Output" style="rounded=1;whiteSpace=wrap;html=1;" parent="1" vertex="1">
          <mxGeometry x="340" y="340" width="80" height="20" as="geometry" />
        </mxCell>
        <mxCell id="lwPp-hryZ5gbsdKSNsE4-5" style="edgeStyle=orthogonalEdgeStyle;rounded=0;orthogonalLoop=1;jettySize=auto;html=1;entryX=0.5;entryY=0;entryDx=0;entryDy=0;" edge="1" parent="1" source="lwPp-hryZ5gbsdKSNsE4-1" target="lwPp-hryZ5gbsdKSNsE4-3">
          <mxGeometry relative="1" as="geometry" />
        </mxCell>
        <mxCell id="lwPp-hryZ5gbsdKSNsE4-6" style="edgeStyle=orthogonalEdgeStyle;rounded=0;orthogonalLoop=1;jettySize=auto;html=1;entryX=0.5;entryY=0;entryDx=0;entryDy=0;" edge="1" parent="1" source="lwPp-hryZ5gbsdKSNsE4-1" target="lwPp-hryZ5gbsdKSNsE4-4">
          <mxGeometry relative="1" as="geometry" />
        </mxCell>
        <mxCell id="lwPp-hryZ5gbsdKSNsE4-1" value="Online scripts" style="rounded=1;whiteSpace=wrap;html=1;" vertex="1" parent="1">
          <mxGeometry x="520" y="335" width="100" height="30" as="geometry" />
        </mxCell>
        <mxCell id="lwPp-hryZ5gbsdKSNsE4-3" value="" style="shape=image;html=1;verticalAlign=top;verticalLabelPosition=bottom;labelBackgroundColor=#ffffff;imageAspect=0;aspect=fixed;image=https://cdn1.iconfinder.com/data/icons/bootstrap-vol-3/16/filetype-json-128.png" vertex="1" parent="1">
          <mxGeometry x="496" y="393" width="24" height="24" as="geometry" />
        </mxCell>
        <mxCell id="lwPp-hryZ5gbsdKSNsE4-4" value="" style="shape=image;html=1;verticalAlign=top;verticalLabelPosition=bottom;labelBackgroundColor=#ffffff;imageAspect=0;aspect=fixed;image=https://cdn4.iconfinder.com/data/icons/scripting-and-programming-languages/512/js-128.png" vertex="1" parent="1">
          <mxGeometry x="620" y="396" width="18" height="18" as="geometry" />
        </mxCell>
        <mxCell id="lwPp-hryZ5gbsdKSNsE4-7" value="App schema" style="rounded=0;whiteSpace=wrap;html=1;" vertex="1" parent="1">
          <mxGeometry x="470" y="430" width="120" height="60" as="geometry" />
        </mxCell>
        <mxCell id="lwPp-hryZ5gbsdKSNsE4-8" value="tagging-scripts" style="rounded=0;whiteSpace=wrap;html=1;" vertex="1" parent="1">
          <mxGeometry x="569" y="440" width="120" height="60" as="geometry" />
        </mxCell>
      </root>
    </mxGraphModel>
  </diagram>
</mxfile>
